<svg width="282" height="83" viewBox="0 0 282 83" fill="none" xmlns="http://www.w3.org/2000/svg">
<path d="M87.5 3H90V0.5H87.5V3ZM87.5 70.5L101.934 45.5H73.0662L87.5 70.5ZM0 5.5H87.5V0.5H0V5.5ZM85 3V48H90V3H85Z" fill="black"/>
<path d="M146.312 63.9688H133.984L131.641 71H124.164L136.867 36.875H143.383L156.156 71H148.68L146.312 63.9688ZM135.883 58.2734H144.414L140.125 45.5L135.883 58.2734ZM159.344 71V36.875H171.297C175.438 36.875 178.578 37.6719 180.719 39.2656C182.859 40.8438 183.93 43.1641 183.93 46.2266C183.93 47.8984 183.5 49.375 182.641 50.6562C181.781 51.9219 180.586 52.8516 179.055 53.4453C180.805 53.8828 182.18 54.7656 183.18 56.0938C184.195 57.4219 184.703 59.0469 184.703 60.9688C184.703 64.25 183.656 66.7344 181.562 68.4219C179.469 70.1094 176.484 70.9688 172.609 71H159.344ZM166.375 56.1406V65.3516H172.398C174.055 65.3516 175.344 64.9609 176.266 64.1797C177.203 63.3828 177.672 62.2891 177.672 60.8984C177.672 57.7734 176.055 56.1875 172.82 56.1406H166.375ZM166.375 51.1719H171.578C175.125 51.1094 176.898 49.6953 176.898 46.9297C176.898 45.3828 176.445 44.2734 175.539 43.6016C174.648 42.9141 173.234 42.5703 171.297 42.5703H166.375V51.1719ZM218.031 54.7109C218.031 58.0703 217.438 61.0156 216.25 63.5469C215.062 66.0781 213.359 68.0312 211.141 69.4062C208.938 70.7812 206.406 71.4688 203.547 71.4688C200.719 71.4688 198.195 70.7891 195.977 69.4297C193.758 68.0703 192.039 66.1328 190.82 63.6172C189.602 61.0859 188.984 58.1797 188.969 54.8984V53.2109C188.969 49.8516 189.57 46.8984 190.773 44.3516C191.992 41.7891 193.703 39.8281 195.906 38.4688C198.125 37.0938 200.656 36.4062 203.5 36.4062C206.344 36.4062 208.867 37.0938 211.07 38.4688C213.289 39.8281 215 41.7891 216.203 44.3516C217.422 46.8984 218.031 49.8438 218.031 53.1875V54.7109ZM210.906 53.1641C210.906 49.5859 210.266 46.8672 208.984 45.0078C207.703 43.1484 205.875 42.2188 203.5 42.2188C201.141 42.2188 199.32 43.1406 198.039 44.9844C196.758 46.8125 196.109 49.5 196.094 53.0469V54.7109C196.094 58.1953 196.734 60.8984 198.016 62.8203C199.297 64.7422 201.141 65.7031 203.547 65.7031C205.906 65.7031 207.719 64.7812 208.984 62.9375C210.25 61.0781 210.891 58.375 210.906 54.8281V53.1641ZM248.969 36.875V59.3516C248.969 63.0859 247.797 66.0391 245.453 68.2109C243.125 70.3828 239.938 71.4688 235.891 71.4688C231.906 71.4688 228.742 70.4141 226.398 68.3047C224.055 66.1953 222.859 63.2969 222.812 59.6094V36.875H229.844V59.3984C229.844 61.6328 230.375 63.2656 231.438 64.2969C232.516 65.3125 234 65.8203 235.891 65.8203C239.844 65.8203 241.852 63.7422 241.914 59.5859V36.875H248.969ZM280.422 42.5703H269.969V71H262.938V42.5703H252.625V36.875H280.422V42.5703Z" fill="black"/>
</svg>
