<svg width="342" height="83" viewBox="0 0 342 83" fill="none" xmlns="http://www.w3.org/2000/svg">
<path d="M88 3H90.5V0.5H88V3ZM88 70.5L102.434 45.5H73.5662L88 70.5ZM0.5 5.5H88V0.5H0.5V5.5ZM85.5 3V48H90.5V3H85.5Z" fill="black"/>
<path d="M141.742 62.0469C141.742 60.7188 141.273 59.7031 140.336 59C139.398 58.2812 137.711 57.5312 135.273 56.75C132.836 55.9531 130.906 55.1719 129.484 54.4062C125.609 52.3125 123.672 49.4922 123.672 45.9453C123.672 44.1016 124.188 42.4609 125.219 41.0234C126.266 39.5703 127.758 38.4375 129.695 37.625C131.648 36.8125 133.836 36.4062 136.258 36.4062C138.695 36.4062 140.867 36.8516 142.773 37.7422C144.68 38.6172 146.156 39.8594 147.203 41.4688C148.266 43.0781 148.797 44.9062 148.797 46.9531H141.766C141.766 45.3906 141.273 44.1797 140.289 43.3203C139.305 42.4453 137.922 42.0078 136.141 42.0078C134.422 42.0078 133.086 42.375 132.133 43.1094C131.18 43.8281 130.703 44.7812 130.703 45.9688C130.703 47.0781 131.258 48.0078 132.367 48.7578C133.492 49.5078 135.141 50.2109 137.312 50.8672C141.312 52.0703 144.227 53.5625 146.055 55.3438C147.883 57.125 148.797 59.3438 148.797 62C148.797 64.9531 147.68 67.2734 145.445 68.9609C143.211 70.6328 140.203 71.4688 136.422 71.4688C133.797 71.4688 131.406 70.9922 129.25 70.0391C127.094 69.0703 125.445 67.75 124.305 66.0781C123.18 64.4062 122.617 62.4688 122.617 60.2656H129.672C129.672 64.0312 131.922 65.9141 136.422 65.9141C138.094 65.9141 139.398 65.5781 140.336 64.9062C141.273 64.2188 141.742 63.2656 141.742 62.0469ZM174.109 56.2109H160.609V65.3516H176.453V71H153.578V36.875H176.406V42.5703H160.609V50.7031H174.109V56.2109ZM193.211 58.5078H187.609V71H180.578V36.875H193.258C197.289 36.875 200.398 37.7734 202.586 39.5703C204.773 41.3672 205.867 43.9062 205.867 47.1875C205.867 49.5156 205.359 51.4609 204.344 53.0234C203.344 54.5703 201.82 55.8047 199.773 56.7266L207.156 70.6719V71H199.609L193.211 58.5078ZM187.609 52.8125H193.281C195.047 52.8125 196.414 52.3672 197.383 51.4766C198.352 50.5703 198.836 49.3281 198.836 47.75C198.836 46.1406 198.375 44.875 197.453 43.9531C196.547 43.0312 195.148 42.5703 193.258 42.5703H187.609V52.8125ZM223.375 62.5391L231.109 36.875H238.938L227.055 71H219.719L207.883 36.875H215.688L223.375 62.5391ZM249.648 71H242.617V36.875H249.648V71ZM282.977 59.6328C282.711 63.3047 281.352 66.1953 278.898 68.3047C276.461 70.4141 273.242 71.4688 269.242 71.4688C264.867 71.4688 261.422 70 258.906 67.0625C256.406 64.1094 255.156 60.0625 255.156 54.9219V52.8359C255.156 49.5547 255.734 46.6641 256.891 44.1641C258.047 41.6641 259.695 39.75 261.836 38.4219C263.992 37.0781 266.492 36.4062 269.336 36.4062C273.273 36.4062 276.445 37.4609 278.852 39.5703C281.258 41.6797 282.648 44.6406 283.023 48.4531H275.992C275.82 46.25 275.203 44.6562 274.141 43.6719C273.094 42.6719 271.492 42.1719 269.336 42.1719C266.992 42.1719 265.234 43.0156 264.062 44.7031C262.906 46.375 262.312 48.9766 262.281 52.5078V55.0859C262.281 58.7734 262.836 61.4688 263.945 63.1719C265.07 64.875 266.836 65.7266 269.242 65.7266C271.414 65.7266 273.031 65.2344 274.094 64.25C275.172 63.25 275.789 61.7109 275.945 59.6328H282.977ZM308.125 56.2109H294.625V65.3516H310.469V71H287.594V36.875H310.422V42.5703H294.625V50.7031H308.125V56.2109ZM332.289 62.0469C332.289 60.7188 331.82 59.7031 330.883 59C329.945 58.2812 328.258 57.5312 325.82 56.75C323.383 55.9531 321.453 55.1719 320.031 54.4062C316.156 52.3125 314.219 49.4922 314.219 45.9453C314.219 44.1016 314.734 42.4609 315.766 41.0234C316.812 39.5703 318.305 38.4375 320.242 37.625C322.195 36.8125 324.383 36.4062 326.805 36.4062C329.242 36.4062 331.414 36.8516 333.32 37.7422C335.227 38.6172 336.703 39.8594 337.75 41.4688C338.812 43.0781 339.344 44.9062 339.344 46.9531H332.312C332.312 45.3906 331.82 44.1797 330.836 43.3203C329.852 42.4453 328.469 42.0078 326.688 42.0078C324.969 42.0078 323.633 42.375 322.68 43.1094C321.727 43.8281 321.25 44.7812 321.25 45.9688C321.25 47.0781 321.805 48.0078 322.914 48.7578C324.039 49.5078 325.688 50.2109 327.859 50.8672C331.859 52.0703 334.773 53.5625 336.602 55.3438C338.43 57.125 339.344 59.3438 339.344 62C339.344 64.9531 338.227 67.2734 335.992 68.9609C333.758 70.6328 330.75 71.4688 326.969 71.4688C324.344 71.4688 321.953 70.9922 319.797 70.0391C317.641 69.0703 315.992 67.75 314.852 66.0781C313.727 64.4062 313.164 62.4688 313.164 60.2656H320.219C320.219 64.0312 322.469 65.9141 326.969 65.9141C328.641 65.9141 329.945 65.5781 330.883 64.9062C331.82 64.2188 332.289 63.2656 332.289 62.0469Z" fill="black"/>
</svg>
